<mxfile host="app.diagrams.net" modified="2022-10-28T06:52:10.105Z" agent="5.0 (X11; Linux x86_64) AppleWebKit/537.36 (KHTML, like Gecko) Chrome/105.0.0.0 Safari/537.36" etag="PJg1J4D0biSeibSj5eUU" version="20.5.1" type="github">
  <diagram name="Page-1" id="c37626ed-c26b-45fb-9056-f9ebc6bb27b6">
    <mxGraphModel dx="2123" dy="1272" grid="1" gridSize="10" guides="1" tooltips="1" connect="1" arrows="1" fold="1" page="1" pageScale="1" pageWidth="1100" pageHeight="850" background="none" math="0" shadow="0">
      <root>
        <mxCell id="0" />
        <mxCell id="1" parent="0" />
        <mxCell id="YZMO5WbZFimtpBgHQZfo-31" value="&lt;b&gt;kvm3&lt;/b&gt;" style="rounded=1;whiteSpace=wrap;html=1;fillColor=#e1d5e7;align=left;strokeColor=#9673a6;" vertex="1" parent="1">
          <mxGeometry x="170" y="320" width="175" height="160" as="geometry" />
        </mxCell>
        <mxCell id="YZMO5WbZFimtpBgHQZfo-34" value="" style="edgeStyle=orthogonalEdgeStyle;rounded=0;orthogonalLoop=1;jettySize=auto;html=1;strokeWidth=1;fillColor=#dae8fc;strokeColor=#6c8ebf;startArrow=classic;startFill=1;" edge="1" parent="1" source="YZMO5WbZFimtpBgHQZfo-32" target="YZMO5WbZFimtpBgHQZfo-18">
          <mxGeometry relative="1" as="geometry">
            <Array as="points">
              <mxPoint x="680" y="790" />
            </Array>
          </mxGeometry>
        </mxCell>
        <mxCell id="YZMO5WbZFimtpBgHQZfo-32" value="&lt;b&gt;kvm1.centrems.com&lt;/b&gt;" style="rounded=1;whiteSpace=wrap;html=1;fillColor=#e1d5e7;align=left;strokeColor=#9673a6;" vertex="1" parent="1">
          <mxGeometry x="780" y="320" width="440" height="880" as="geometry" />
        </mxCell>
        <mxCell id="YZMO5WbZFimtpBgHQZfo-22" value="" style="edgeStyle=orthogonalEdgeStyle;rounded=0;orthogonalLoop=1;jettySize=auto;html=1;fillColor=#dae8fc;strokeColor=#6c8ebf;startArrow=classic;startFill=1;" edge="1" parent="1" source="YZMO5WbZFimtpBgHQZfo-5" target="YZMO5WbZFimtpBgHQZfo-18">
          <mxGeometry relative="1" as="geometry">
            <mxPoint x="760" y="392.5" as="targetPoint" />
          </mxGeometry>
        </mxCell>
        <mxCell id="YZMO5WbZFimtpBgHQZfo-33" value="" style="edgeStyle=orthogonalEdgeStyle;rounded=0;orthogonalLoop=1;jettySize=auto;html=1;strokeWidth=1;fillColor=#d5e8d4;strokeColor=#82b366;startArrow=classic;startFill=1;" edge="1" parent="1" source="YZMO5WbZFimtpBgHQZfo-5" target="YZMO5WbZFimtpBgHQZfo-8">
          <mxGeometry relative="1" as="geometry">
            <mxPoint x="985" y="392.5" as="targetPoint" />
          </mxGeometry>
        </mxCell>
        <mxCell id="YZMO5WbZFimtpBgHQZfo-5" value="router1.centrems" style="verticalLabelPosition=bottom;sketch=0;aspect=fixed;html=1;verticalAlign=top;strokeColor=none;align=center;outlineConnect=0;shape=mxgraph.citrix.license_server;" vertex="1" parent="1">
          <mxGeometry x="840" y="350" width="65" height="85" as="geometry" />
        </mxCell>
        <mxCell id="YZMO5WbZFimtpBgHQZfo-23" value="" style="edgeStyle=orthogonalEdgeStyle;rounded=0;orthogonalLoop=1;jettySize=auto;html=1;fillColor=#dae8fc;strokeColor=#6c8ebf;startArrow=classic;startFill=1;" edge="1" parent="1" source="YZMO5WbZFimtpBgHQZfo-6" target="YZMO5WbZFimtpBgHQZfo-18">
          <mxGeometry relative="1" as="geometry">
            <mxPoint x="960" y="512.5" as="targetPoint" />
          </mxGeometry>
        </mxCell>
        <mxCell id="YZMO5WbZFimtpBgHQZfo-29" value="" style="edgeStyle=orthogonalEdgeStyle;rounded=0;orthogonalLoop=1;jettySize=auto;html=1;fillColor=#d5e8d4;strokeColor=#82b366;startArrow=classic;startFill=1;" edge="1" parent="1" source="YZMO5WbZFimtpBgHQZfo-6" target="YZMO5WbZFimtpBgHQZfo-8">
          <mxGeometry relative="1" as="geometry">
            <mxPoint x="1185" y="512.5" as="targetPoint" />
            <Array as="points">
              <mxPoint x="1190" y="513" />
              <mxPoint x="1190" y="393" />
            </Array>
          </mxGeometry>
        </mxCell>
        <mxCell id="YZMO5WbZFimtpBgHQZfo-6" value="portal1.centrems" style="verticalLabelPosition=bottom;sketch=0;aspect=fixed;html=1;verticalAlign=top;strokeColor=none;align=center;outlineConnect=0;shape=mxgraph.citrix.license_server;" vertex="1" parent="1">
          <mxGeometry x="1040" y="470" width="65" height="85" as="geometry" />
        </mxCell>
        <mxCell id="YZMO5WbZFimtpBgHQZfo-24" value="" style="edgeStyle=orthogonalEdgeStyle;rounded=0;orthogonalLoop=1;jettySize=auto;html=1;fillColor=#dae8fc;strokeColor=#6c8ebf;startArrow=classic;startFill=1;" edge="1" parent="1" source="YZMO5WbZFimtpBgHQZfo-7" target="YZMO5WbZFimtpBgHQZfo-18">
          <mxGeometry relative="1" as="geometry">
            <mxPoint x="960" y="632.5" as="targetPoint" />
            <Array as="points">
              <mxPoint x="960" y="633" />
              <mxPoint x="960" y="661" />
            </Array>
          </mxGeometry>
        </mxCell>
        <mxCell id="YZMO5WbZFimtpBgHQZfo-30" value="" style="edgeStyle=orthogonalEdgeStyle;rounded=0;orthogonalLoop=1;jettySize=auto;html=1;fillColor=#d5e8d4;strokeColor=#82b366;startArrow=classic;startFill=1;" edge="1" parent="1" source="YZMO5WbZFimtpBgHQZfo-7" target="YZMO5WbZFimtpBgHQZfo-8">
          <mxGeometry relative="1" as="geometry">
            <mxPoint x="1185" y="632.5" as="targetPoint" />
            <Array as="points">
              <mxPoint x="1190" y="632.5000000000002" />
              <mxPoint x="1190" y="392.5" />
            </Array>
          </mxGeometry>
        </mxCell>
        <mxCell id="YZMO5WbZFimtpBgHQZfo-7" value="mail1.centrems" style="verticalLabelPosition=bottom;sketch=0;aspect=fixed;html=1;verticalAlign=top;strokeColor=none;align=center;outlineConnect=0;shape=mxgraph.citrix.license_server;" vertex="1" parent="1">
          <mxGeometry x="1040" y="590" width="65" height="85" as="geometry" />
        </mxCell>
        <mxCell id="YZMO5WbZFimtpBgHQZfo-8" value="ldap1.centrems" style="verticalLabelPosition=bottom;sketch=0;aspect=fixed;html=1;verticalAlign=top;strokeColor=none;align=center;outlineConnect=0;shape=mxgraph.citrix.license_server;" vertex="1" parent="1">
          <mxGeometry x="1040" y="350" width="65" height="85" as="geometry" />
        </mxCell>
        <mxCell id="YZMO5WbZFimtpBgHQZfo-25" value="" style="edgeStyle=orthogonalEdgeStyle;rounded=0;orthogonalLoop=1;jettySize=auto;html=1;strokeWidth=1;fillColor=#dae8fc;strokeColor=#6c8ebf;startArrow=classic;startFill=1;" edge="1" parent="1" source="YZMO5WbZFimtpBgHQZfo-9" target="YZMO5WbZFimtpBgHQZfo-18">
          <mxGeometry relative="1" as="geometry">
            <mxPoint x="960" y="752.5" as="targetPoint" />
            <Array as="points">
              <mxPoint x="960" y="753" />
              <mxPoint x="960" y="661" />
            </Array>
          </mxGeometry>
        </mxCell>
        <mxCell id="YZMO5WbZFimtpBgHQZfo-9" value="web1.centrems" style="verticalLabelPosition=bottom;sketch=0;aspect=fixed;html=1;verticalAlign=top;strokeColor=none;align=center;outlineConnect=0;shape=mxgraph.citrix.license_server;" vertex="1" parent="1">
          <mxGeometry x="1040" y="710" width="65" height="85" as="geometry" />
        </mxCell>
        <mxCell id="YZMO5WbZFimtpBgHQZfo-21" value="" style="edgeStyle=orthogonalEdgeStyle;rounded=0;orthogonalLoop=1;jettySize=auto;html=1;fillColor=#dae8fc;strokeColor=#6c8ebf;startArrow=classic;startFill=1;" edge="1" parent="1" source="YZMO5WbZFimtpBgHQZfo-10" target="YZMO5WbZFimtpBgHQZfo-18">
          <mxGeometry relative="1" as="geometry">
            <mxPoint x="960" y="872.5" as="targetPoint" />
          </mxGeometry>
        </mxCell>
        <mxCell id="YZMO5WbZFimtpBgHQZfo-10" value="web1.mapcms" style="verticalLabelPosition=bottom;sketch=0;aspect=fixed;html=1;verticalAlign=top;strokeColor=none;align=center;outlineConnect=0;shape=mxgraph.citrix.license_server;" vertex="1" parent="1">
          <mxGeometry x="1040" y="830" width="65" height="85" as="geometry" />
        </mxCell>
        <mxCell id="YZMO5WbZFimtpBgHQZfo-19" value="" style="edgeStyle=orthogonalEdgeStyle;rounded=0;orthogonalLoop=1;jettySize=auto;html=1;fillColor=#dae8fc;strokeColor=#6c8ebf;startArrow=classic;startFill=1;" edge="1" parent="1" source="YZMO5WbZFimtpBgHQZfo-13" target="YZMO5WbZFimtpBgHQZfo-18">
          <mxGeometry relative="1" as="geometry">
            <mxPoint x="670" y="740" as="targetPoint" />
          </mxGeometry>
        </mxCell>
        <mxCell id="YZMO5WbZFimtpBgHQZfo-13" value="sftp.mapcms" style="verticalLabelPosition=bottom;sketch=0;aspect=fixed;html=1;verticalAlign=top;strokeColor=none;align=center;outlineConnect=0;shape=mxgraph.citrix.license_server;" vertex="1" parent="1">
          <mxGeometry x="1040" y="1070" width="65" height="85" as="geometry" />
        </mxCell>
        <mxCell id="YZMO5WbZFimtpBgHQZfo-20" value="" style="edgeStyle=orthogonalEdgeStyle;rounded=0;orthogonalLoop=1;jettySize=auto;html=1;fillColor=#dae8fc;strokeColor=#6c8ebf;startArrow=classic;startFill=1;" edge="1" parent="1" source="YZMO5WbZFimtpBgHQZfo-14" target="YZMO5WbZFimtpBgHQZfo-18">
          <mxGeometry relative="1" as="geometry">
            <mxPoint x="960" y="992.5" as="targetPoint" />
          </mxGeometry>
        </mxCell>
        <mxCell id="YZMO5WbZFimtpBgHQZfo-14" value="ipa.centrems" style="verticalLabelPosition=bottom;sketch=0;aspect=fixed;html=1;verticalAlign=top;strokeColor=none;align=center;outlineConnect=0;shape=mxgraph.citrix.license_server;" vertex="1" parent="1">
          <mxGeometry x="1040" y="950" width="65" height="85" as="geometry" />
        </mxCell>
        <mxCell id="YZMO5WbZFimtpBgHQZfo-16" value="ldap2.centrems" style="verticalLabelPosition=bottom;sketch=0;aspect=fixed;html=1;verticalAlign=top;strokeColor=none;align=center;outlineConnect=0;shape=mxgraph.citrix.license_server;" vertex="1" parent="1">
          <mxGeometry x="225" y="350" width="65" height="85" as="geometry" />
        </mxCell>
        <mxCell id="YZMO5WbZFimtpBgHQZfo-18" value="" style="verticalLabelPosition=bottom;sketch=0;aspect=fixed;html=1;verticalAlign=top;strokeColor=none;align=center;outlineConnect=0;shape=mxgraph.citrix.cloud;" vertex="1" parent="1">
          <mxGeometry x="520" y="590" width="218.71" height="142.74" as="geometry" />
        </mxCell>
        <mxCell id="YZMO5WbZFimtpBgHQZfo-35" value="" style="edgeStyle=orthogonalEdgeStyle;rounded=0;orthogonalLoop=1;jettySize=auto;html=1;strokeWidth=1;fillColor=#dae8fc;strokeColor=#6c8ebf;startArrow=classic;startFill=1;" edge="1" parent="1" source="YZMO5WbZFimtpBgHQZfo-31" target="YZMO5WbZFimtpBgHQZfo-18">
          <mxGeometry relative="1" as="geometry">
            <mxPoint x="425" y="405" as="targetPoint" />
            <Array as="points">
              <mxPoint x="258" y="661" />
            </Array>
          </mxGeometry>
        </mxCell>
        <mxCell id="YZMO5WbZFimtpBgHQZfo-36" value="" style="endArrow=classic;startArrow=classic;html=1;rounded=0;strokeWidth=1;fillColor=#fff2cc;strokeColor=#d6b656;" edge="1" parent="1" source="YZMO5WbZFimtpBgHQZfo-16" target="YZMO5WbZFimtpBgHQZfo-5">
          <mxGeometry width="50" height="50" relative="1" as="geometry">
            <mxPoint x="630" y="790" as="sourcePoint" />
            <mxPoint x="680" y="740" as="targetPoint" />
            <Array as="points">
              <mxPoint x="258" y="240" />
              <mxPoint x="510" y="240" />
              <mxPoint x="873" y="240" />
            </Array>
          </mxGeometry>
        </mxCell>
        <mxCell id="YZMO5WbZFimtpBgHQZfo-37" value="&lt;font style=&quot;font-size: 14px;&quot;&gt;&lt;b&gt;vpn&lt;/b&gt;&lt;/font&gt;" style="edgeLabel;html=1;align=center;verticalAlign=middle;resizable=0;points=[];" vertex="1" connectable="0" parent="YZMO5WbZFimtpBgHQZfo-36">
          <mxGeometry x="0.0874" y="-1" relative="1" as="geometry">
            <mxPoint x="1" as="offset" />
          </mxGeometry>
        </mxCell>
        <mxCell id="YZMO5WbZFimtpBgHQZfo-38" value="" style="endArrow=classic;startArrow=classic;html=1;rounded=0;strokeWidth=1;fontSize=14;fillColor=#dae8fc;strokeColor=#6c8ebf;" edge="1" parent="1">
          <mxGeometry width="50" height="50" relative="1" as="geometry">
            <mxPoint x="160" y="760" as="sourcePoint" />
            <mxPoint x="520" y="760" as="targetPoint" />
          </mxGeometry>
        </mxCell>
        <mxCell id="YZMO5WbZFimtpBgHQZfo-41" value="&lt;b&gt;internet&lt;/b&gt;" style="edgeLabel;html=1;align=center;verticalAlign=middle;resizable=0;points=[];fontSize=14;" vertex="1" connectable="0" parent="YZMO5WbZFimtpBgHQZfo-38">
          <mxGeometry x="0.1222" y="-6" relative="1" as="geometry">
            <mxPoint as="offset" />
          </mxGeometry>
        </mxCell>
        <mxCell id="YZMO5WbZFimtpBgHQZfo-39" value="" style="endArrow=classic;startArrow=classic;html=1;rounded=0;strokeWidth=1;fontSize=14;fillColor=#d5e8d4;strokeColor=#82b366;" edge="1" parent="1">
          <mxGeometry width="50" height="50" relative="1" as="geometry">
            <mxPoint x="160" y="800.0000000000002" as="sourcePoint" />
            <mxPoint x="520" y="800.0000000000002" as="targetPoint" />
          </mxGeometry>
        </mxCell>
        <mxCell id="YZMO5WbZFimtpBgHQZfo-42" value="&lt;b&gt;internal lan&lt;/b&gt;" style="edgeLabel;html=1;align=center;verticalAlign=middle;resizable=0;points=[];fontSize=14;" vertex="1" connectable="0" parent="YZMO5WbZFimtpBgHQZfo-39">
          <mxGeometry x="0.1037" y="-1" relative="1" as="geometry">
            <mxPoint as="offset" />
          </mxGeometry>
        </mxCell>
        <mxCell id="YZMO5WbZFimtpBgHQZfo-40" value="" style="endArrow=classic;startArrow=classic;html=1;rounded=0;strokeWidth=1;fontSize=14;fillColor=#fff2cc;strokeColor=#d6b656;" edge="1" parent="1">
          <mxGeometry width="50" height="50" relative="1" as="geometry">
            <mxPoint x="160" y="840.0000000000002" as="sourcePoint" />
            <mxPoint x="520" y="840.0000000000002" as="targetPoint" />
          </mxGeometry>
        </mxCell>
        <mxCell id="YZMO5WbZFimtpBgHQZfo-43" value="&lt;b&gt;softether vpn&lt;/b&gt;" style="edgeLabel;html=1;align=center;verticalAlign=middle;resizable=0;points=[];fontSize=14;" vertex="1" connectable="0" parent="YZMO5WbZFimtpBgHQZfo-40">
          <mxGeometry x="0.2333" relative="1" as="geometry">
            <mxPoint as="offset" />
          </mxGeometry>
        </mxCell>
      </root>
    </mxGraphModel>
  </diagram>
</mxfile>
